# AST/ASF file generated using VICON BodyLanguage
# -----------------------------------------------
:version 1.10
:name VICON
:units
  mass 1.0
  length 0.45
  angle deg
:documentation
   .ast/.asf automatically generated from VICON data using
   VICON BodyBuilder and BodyLanguage model FoxedUp or BRILLIANT.MOD
:root
   order TX TY TZ RX RY RZ
   axis XYZ
   position 0 0 0  
   orientation 0 0 0 
:bonedata
  begin
     id 1 
     name lhipjoint
     direction 0.610259 -0.730986 0.305356 
     length 2.50941 
     axis 0 0 0  XYZ
  end
  begin
     id 2 
     name lfemur
     direction 0.34202 -0.939693 0  
     length 7.48822  
     axis 0 0 20  XYZ
    dof rx ry rz
    limits (-160.0 20.0)
           (-70.0 70.0)
           (-60.0 70.0)
  end
  begin
     id 3 
     name ltibia
     direction 0.34202 -0.939693 0   
     length 7.60141   
     axis 0 0 20   XYZ
    dof rx
    limits (-10.0 170.0)
  end
  begin
     id 4 
     name lfoot
     direction 0.0673488 -0.185039 0.980421   
     length 2.04049   
     axis -90 7.62852e-016 20   XYZ
    dof rx rz
    limits (-45.0 90.0)
           (-70.0 20.0)
  end
  begin
     id 5 
     name ltoes
     direction 1.5356e-011 -4.21729e-011 1   
     length 1.02897   
     axis -90 7.62852e-016 20   XYZ
    dof rx
    limits (-90.0 20.0)
  end
  begin
     id 6 
     name rhipjoint
     direction -0.57612 -0.754205 0.315056   
     length 2.43216  
     axis 0 0 0  XYZ 
  end
  begin
     id 7 
     name rfemur
     direction -0.34202 -0.939693 0   
     length 7.42799   
     axis 0 0 -20   XYZ
    dof rx ry rz
    limits (-160.0 20.0)
           (-70.0 70.0)
           (-70.0 60.0)
  end
  begin
     id 8 
     name rtibia
     direction -0.34202 -0.939693 0   
     length 7.69484   
     axis 0 0 -20   XYZ
    dof rx
    limits (-10.0 170.0)
 end
 begin
     id 9 
     name rfoot
     direction -0.111837 -0.30727 0.945028   
     length 2.15769  
     axis -90 -7.62852e-016 -20   XYZ
    dof rx rz
    limits (-45.0 90.0)
           (-20.0 70.0)
  end
  begin
     id 10 
     name rtoes
     direction -1.53539e-011 -4.21878e-011 1   
     length 1.07391   
     axis -90 -7.62852e-016 -20   XYZ
    dof rx
    limits (-90.0 20.0)
  end
  begin
     id 11 
     name lowerback
     direction 0.00552624 0.990109 -0.140195   
     length 2.12403   
     axis 0 0 0   XYZ
    dof rx ry rz
    limits (-20.0 45.0)
           (-30.0 30.0)
           (-30.0 30.0)
  end
  begin
     id 12 
     name upperback
     direction 0.00361898 0.999976 -0.00584723   
     length 2.13232   
     axis 0 0 0   XYZ
    dof rx ry rz
    limits (-20.0 45.0)
           (-30.0 30.0)
           (-30.0 30.0)
  end
  begin
     id 13 
     name thorax
     direction -0.000331275 0.998253 0.0590847   
     length 2.17688   
     axis 0 0 0   XYZ
    dof rx ry rz
    limits (-20.0 45.0)
           (-30.0 30.0)
           (-30.0 30.0)
  end
  begin
     id 14 
     name lowerneck
     direction -0.0561561 0.979832 0.19177   
     length 1.64159   
     axis 0 0 0   XYZ
    dof rx ry rz
    limits (-20.0 45.0)
           (-30.0 30.0)
           (-30.0 30.0)
  end
  begin
     id 15 
     name upperneck
     direction 0.0827153 0.979385 -0.184293   
     length 1.68939   
     axis 0 0 0   XYZ
    dof rx ry rz
    limits (-20.0 45.0)
           (-30.0 30.0)
           (-30.0 30.0)
  end
  begin
     id 16
     name head
     direction 0.0278583 0.995936 -0.0856488  
     length 1.70207  
     axis 0 0 0   XYZ
    dof rx ry rz
    limits (-20.0 45.0)
           (-30.0 30.0)
           (-30.0 30.0)
  end
  begin
     id 17 
     name lclavicle
     direction 0.950993 0.301131 -0.0702275  
     length 3.41652  
     axis 0 0 0   XYZ
    dof ry rz
    limits (-20.0 10.0)
           (0.0 20.0)
  end
  begin
     id 18 
     name lhumerus
     direction 1 -4.48981e-011 -3.9662e-029   
     length 5.32955   
     axis 180 -30 -90   XYZ
    dof rx ry rz
    limits (-60.0 90.0)
           (-90.0 90.0)
           (-90.0 90.0)
  end
  begin
     id 19
     name lradius
     direction 1 -4.48925e-011 -9.0549e-027   
     length 3.69232   
     axis 180 -30 -90   XYZ
    dof rx
    limits (-10.0 170.0)
  end
  begin
     id 20
     name lwrist
     direction 1 -4.49007e-011 -1.49005e-026   
     length 1.84616   
     axis 9.0955e-015 90 90   XYZ
    dof ry
    limits (-180.0 0.0)
 end
  begin
     id 21 
     name lhand
     direction 1 -4.49016e-011 -2.98023e-026   
     length 0.536598   
     axis 1.90115e-014 90 90   XYZ
    dof rx rz
    limits (-90.0 90.0)
           (-45.0 45.0)
  end
  begin
     id 22 
     name lfingers
     direction 1 -4.48924e-011 -5.9578e-026   
     length 0.432619   
     axis 3.80223e-014 90 90   XYZ
    dof rx
    limits (0.0 90.0)
  end
  begin
     id 23
     name lthumb
     direction 0.707107 -6.34947e-011 0.707107   
     length 0.621157   
     axis -90 45 -3.84942e-014   XYZ
    dof rx rz
    limits (-45.0 45.0)
           (-45.0 45.0)
  end
  begin
     id 24 
     name rclavicle
     direction -0.955495 0.276497 -0.102848   
     length 3.36357  
     axis 0 0 0   XYZ 
    dof ry rz
    limits (-10.0 20.0)
           (-20.0 0.0)
  end
  begin
     id 25 
     name rhumerus
     direction -1 -4.48961e-011 3.30983e-027  
     length 5.23431   
     axis 180 30 90   XYZ
    dof rx ry rz
    limits (-90.0 60.0)
           (-90.0 90.0)
           (-90.0 90.0)
  end
  begin
     id 26 
     name rradius
     direction -1 -4.48965e-011 -6.63263e-027   
     length 3.55301   
     axis 180 30 90   XYZ
    dof rx
    limits (-10.0 170.0)
  end
  begin
     id 27 
     name rwrist
     direction -1 -4.48942e-011 -1.48958e-026   
     length 1.77651   
     axis 9.0955e-015 -90 -90   XYZ
    dof ry
    limits (-180.0 0.0)
  end
  begin
     id 28
     name rhand
     direction -1 -4.48977e-011 -2.97966e-026   
     length 0.772522   
     axis 1.90115e-014 -90 -90   XYZ
    dof rx rz
    limits (-90.0 90.0)
           (-45.0 45.0)
  end
  begin
     id 29
     name rfingers
     direction -1 -4.49135e-011 -5.96389e-026   
     length 0.622827   
     axis 3.80223e-014 -90 -90   XYZ
    dof rx
    limits (0.0 90.0)
  end
  begin
     id 30
     name rthumb
     direction -0.707107 -6.34969e-011 0.707107   
     length 0.894259   
     axis -90 -45 3.84942e-014   XYZ
    dof rx rz
    limits (-45.0 45.0)
           (-45.0 45.0)
  end
:hierarchy
  begin
    root lhipjoint rhipjoint lowerback
    lhipjoint lfemur
    lfemur ltibia
    ltibia lfoot
    lfoot ltoes
    rhipjoint rfemur
    rfemur rtibia
    rtibia rfoot
    rfoot rtoes
    lowerback upperback
    upperback thorax
    thorax lowerneck lclavicle rclavicle
    lowerneck upperneck
    upperneck head
    lclavicle lhumerus
    lhumerus lradius
    lradius lwrist
    lwrist lhand lthumb
    lhand lfingers
    rclavicle rhumerus
    rhumerus rradius
    rradius rwrist
    rwrist rhand rthumb
    rhand rfingers
  end

#!OML:ASF F:\VICON\USERDATA\INSTALL\rory3\rory3.ASF
:FULLY-SPECIFIED
:DEGREES
73
root 15.3421 17.7776 -7.04714 -14.3801 -81.283 13.5835
lowerback 13.1578 1.66819 2.13269
upperback 0.062279 2.56466 0.696386
thorax -7.26172 1.1723 -0.954827
lowerneck -23.2173 -0.498846 -9.04072
upperneck 30.9806 0.882329 4.76734
head 14.5079 -0.159773 3.64645
rclavicle 2.04748e-014 1.59028e-015
rhumerus -35.4613 -17.993 -72.8845
rradius 31.8684
rwrist 8.38562
rhand -15.361 9.69673
rfingers 7.12502
rthumb 10.8166 -20.0047
lclavicle 2.04748e-014 1.59028e-015
lhumerus -33.7932 10.1387 77.4464
lradius 35.7076
lwrist -1.87221
lhand -22.1326 22.3496
lfingers 7.12502
lthumb 4.28075 52.2863
rfemur -6.10539 0.822695 20.3786
rtibia 32.4596
rfoot -21.0105 -2.73927
rtoes 8.36663
lfemur -17.0193 9.29157 -18.4129
ltibia 46.0287
lfoot -15.2583 -6.94244
ltoes -34.9949
74
root 15.3389 17.798 -6.98752 -13.8147 -81.3376 12.9928
lowerback 13.1825 1.63294 2.26869
upperback 0.0452306 2.54027 0.704889
thorax -7.28916 1.1551 -1.01891
lowerneck -23.1193 -0.476731 -8.97172
upperneck 30.8583 0.879416 4.76606
head 14.4321 -0.148 3.62739
rclavicle 1.65985e-014 -8.74653e-015
rhumerus -35.3783 -18.1572 -72.827
rradius 31.7435
rwrist 6.98743
rhand -16.3495 9.3812
rfingers 7.12502
rthumb 9.86299 -20.3678
lclavicle 1.65985e-014 -8.74653e-015
lhumerus -33.9367 10.0453 77.4472
lradius 35.413
lwrist -2.36785
lhand -21.8189 21.735
lfingers 7.12502
lthumb 4.58364 51.6655
rfemur -5.76459 0.784038 20.2584
rtibia 31.9071
rfoot -20.7761 -2.6487
rtoes 8.08576
lfemur -17.144 8.94176 -17.8873
ltibia 45.9696
lfoot -14.4274 -4.49087
ltoes -34.4931
75
root 15.3331 17.814 -6.92504 -13.459 -81.4145 12.5734
lowerback 13.2414 1.54047 2.39831
upperback 0.0394269 2.4348 0.646539
thorax -7.32386 1.09735 -1.13575
lowerneck -23.2576 -0.425127 -8.75958
upperneck 30.9736 0.880243 4.76415
head 14.5133 -0.126839 3.59694
rclavicle 2.00276e-014 -2.78299e-014
rhumerus -35.3265 -18.4473 -72.8361
rradius 31.6971
rwrist 6.26618
rhand -16.7 9.03226
rfingers 7.12502
rthumb 9.52484 -20.7325
lclavicle 2.00276e-014 -2.78299e-014
lhumerus -34.1412 10.1398 77.2087
lradius 35.1758
lwrist -3.17397
lhand -21.5581 21.3859
lfingers 7.12502
lthumb 4.83547 51.3107
rfemur -5.37668 0.633076 20.0757
rtibia 31.3324
rfoot -20.5452 -2.35507
rtoes 8.05099
lfemur -17.1921 8.5635 -17.3211
ltibia 45.8052
lfoot -13.2214 -2.22975
ltoes -33.5924
76
root 15.3222 17.831 -6.86567 -13.9624 -81.5313 13.0507
lowerback 13.1738 1.5293 2.29277
upperback 0.0891352 2.39679 0.599639
thorax -7.2359 1.08354 -1.11558
lowerneck -23.4855 -0.449548 -8.72926
upperneck 31.1533 0.778786 4.96535
head 14.65 -0.143297 3.66789
rclavicle -1.1281e-014 3.97569e-015
rhumerus -35.2147 -19.0293 -72.6736
rradius 31.6523
rwrist 6.01958
rhand -16.8269 8.74609
rfingers 7.12502
rthumb 9.40234 -21.0242
lclavicle -1.1281e-014 3.97569e-015
lhumerus -34.2887 10.2003 77.1025
lradius 34.9823
lwrist -3.94069
lhand -21.4763 21.6757
lfingers 7.12502
lthumb 4.91442 51.5987
rfemur -5.02366 0.651034 19.7875
rtibia 30.7961
rfoot -20.3248 -2.12722
rtoes 8.00695
lfemur -17.1903 8.07707 -16.819
ltibia 45.5113
lfoot -11.916 -0.145555
ltoes -32.7688
77
root 15.3122 17.8531 -6.80283 -13.5026 -81.6826 12.5743
lowerback 13.1214 1.55416 2.40812
upperback 0.0902172 2.44453 0.581754
thorax -7.19808 1.10308 -1.20661
lowerneck -23.4105 -0.50478 -8.81545
upperneck 31.165 0.628289 5.22519
head 14.6493 -0.18142 3.76281
rclavicle -1.3418e-015 -3.97569e-015
rhumerus -35.2242 -19.639 -72.4595
rradius 31.6655
rwrist 5.42599
rhand -17.3373 8.41472
rfingers 7.12502
rthumb 8.90985 -21.3772
lclavicle -1.3418e-015 -3.97569e-015
lhumerus -34.4435 10.1672 77.0641
lradius 34.7103
lwrist -4.58478
lhand -21.6221 21.6977
lfingers 7.12502
lthumb 4.77369 51.6239
rfemur -4.73528 0.822733 19.6847
rtibia 30.37
rfoot -20.1709 -2.05149
rtoes 7.97464
lfemur -17.1491 7.45115 -16.1185
ltibia 45.0963
lfoot -10.6197 1.39719
ltoes -30.5076
78
root 15.305 17.8677 -6.73833 -15.4077 -81.847 14.4449
lowerback 13.213 1.64507 2.18776
upperback 0.0248154 2.5313 0.50005
thorax -7.32229 1.14976 -1.19005
lowerneck -23.2719 -0.556302 -9.01888
upperneck 31.213 0.524776 5.47646
head 14.6473 -0.21793 3.8833
rclavicle -6.95746e-015 -2.38542e-015
rhumerus -35.394 -19.6468 -72.3459
rradius 31.8127
rwrist 4.2469
rhand -18.1967 7.99085
rfingers 7.12502
rthumb 8.08045 -21.8347
lclavicle -6.95746e-015 -2.38542e-015
lhumerus -34.6387 10.2712 76.9681
lradius 34.2811
lwrist -5.21115
lhand -21.9525 21.4679
lfingers 7.12502
lthumb 4.45466 51.4011
rfemur -4.45674 1.08002 19.2228
rtibia 30.0122
rfoot -20.0512 -2.12199
rtoes 7.74118
lfemur -16.9635 6.8438 -15.7902
ltibia 44.5776
lfoot -9.57773 3.05081
ltoes -28.9674
79
root 15.299 17.8716 -6.67739 -18.8979 -81.9617 17.8637
lowerback 13.3561 1.77524 1.74991
upperback 0.00674254 2.62916 0.337124
thorax -7.43061 1.20871 -1.14057
lowerneck -23.1321 -0.608716 -9.06164
upperneck 31.0987 0.431867 5.53513
head 14.5739 -0.250704 3.89102
rclavicle -2.9271e-014 -1.19271e-014
rhumerus -35.5612 -19.4935 -72.3785
rradius 32.0775
rwrist 3.18419
rhand -18.7108 7.39951
rfingers 7.12502
rthumb 7.58428 -22.4445
lclavicle -2.9271e-014 -1.19271e-014
lhumerus -34.7134 10.4965 76.7865
lradius 33.8529
lwrist -5.8108
lhand -22.0157 21.2204
lfingers 7.12502
lthumb 4.39361 51.1549
rfemur -4.15873 1.22663 18.5166
rtibia 29.681
rfoot -19.967 -2.19512
rtoes 6.81202
lfemur -16.7125 6.32501 -15.6539
ltibia 43.9959
lfoot -8.88739 4.49971
ltoes -27.0187
80
root 15.2923 17.8769 -6.61747 -19.6951 -82.1447 18.5669
lowerback 13.4891 1.79515 1.69136
upperback -0.00482549 2.6436 0.262034
thorax -7.51659 1.21489 -1.19529
lowerneck -22.9357 -0.600569 -8.85168
upperneck 30.8484 0.420507 5.32511
head 14.4224 -0.251932 3.75172
rclavicle -3.56818e-014 -1.59028e-015
rhumerus -35.6417 -19.4311 -72.5239
rradius 32.253
rwrist 2.4964
rhand -19.1147 7.0408
rfingers 7.12502
rthumb 7.19439 -22.8169
lclavicle -3.56818e-014 -1.59028e-015
lhumerus -34.8796 10.9952 76.4513
lradius 33.5589
lwrist -6.33976
lhand -21.5329 21.254
lfingers 7.12502
lthumb 4.85981 51.1782
rfemur -3.89066 1.32787 18.2693
rtibia 29.3974
rfoot -19.862 -2.28507
rtoes 5.47921
lfemur -16.5118 5.81285 -15.0101
ltibia 43.3856
lfoot -8.46343 5.61397
ltoes -24.4725
81
root 15.2813 17.8876 -6.54901 -20.0963 -82.3353 18.8899
lowerback 13.5525 1.76232 1.72561
upperback -0.0176339 2.60344 0.217662
thorax -7.56362 1.19239 -1.25651
lowerneck -22.7873 -0.556546 -8.67118
upperneck 30.6718 0.46441 5.14792
head 14.3093 -0.231497 3.64579
rclavicle -1.88845e-015 7.95139e-015
rhumerus -35.5958 -19.3231 -72.6514
rradius 32.2555
rwrist 1.73137
rhand -19.6232 7.04792
rfingers 7.12502
rthumb 6.70357 -22.826
lclavicle -1.88845e-015 7.95139e-015
lhumerus -35.1357 11.5159 76.1031
lradius 33.3152
lwrist -6.6098
lhand -20.741 21.3571
lfingers 7.12502
lthumb 5.62442 51.2625
rfemur -3.586 1.51516 18.058
rtibia 29.0822
rfoot -19.827 -2.26689
rtoes 5.58109
lfemur -16.284 5.18129 -14.3335
ltibia 42.766
lfoot -8.10814 6.6588
ltoes -23.075
82
root 15.2697 17.8974 -6.47841 -20.8443 -82.5002 19.6342
lowerback 13.5477 1.80115 1.76198
upperback -0.0390906 2.65389 0.118069
thorax -7.57584 1.21353 -1.39281
lowerneck -22.8087 -0.577273 -8.62321
upperneck 30.655 0.411165 5.16681
head 14.3112 -0.244991 3.6355
rclavicle 1.48095e-014 -7.95139e-016
rhumerus -35.6638 -19.3054 -72.674
rradius 32.424
rwrist 0.612143
rhand -19.6661 7.0661
rfingers 7.12502
rthumb 6.66213 -22.8091
lclavicle 1.48095e-014 -7.95139e-016
lhumerus -35.1814 11.7539 75.8195
lradius 32.8989
lwrist -6.81527
lhand -20.4277 21.527
lfingers 7.12502
lthumb 5.92685 51.4241
rfemur -3.33908 1.57769 17.743
rtibia 28.7067
rfoot -19.744 -2.09992
rtoes 6.09118
lfemur -16.0991 4.54845 -13.745
ltibia 42.1309
lfoot -7.5654 7.42665
ltoes -22.9256
83
root 15.2596 17.9063 -6.40997 -20.1601 -82.6999 19.0325
lowerback 13.4414 1.83209 1.90563
upperback -0.0754531 2.71789 0.131226
thorax -7.54686 1.24024 -1.46886
lowerneck -22.8203 -0.63289 -8.63737
upperneck 30.6203 0.368903 5.07927
head 14.3037 -0.276055 3.59298
rclavicle -2.61899e-014 -1.27222e-014
rhumerus -35.7826 -19.4492 -72.4325
rradius 32.621
rwrist 0.387919
rhand -18.8841 7.13014
rfingers 7.12502
rthumb 7.41698 -22.7198
lclavicle -2.61899e-014 -1.27222e-014
lhumerus -35.2251 12.3383 75.507
lradius 32.4727
lwrist -7.20213
lhand -20.2697 21.5795
lfingers 7.12502
lthumb 6.07943 51.4722
rfemur -3.21549 1.57826 17.6232
rtibia 28.3392
rfoot -19.5976 -1.8109
rtoes 6.31884
lfemur -16.0225 3.90414 -12.8943
ltibia 41.4429
lfoot -7.22418 7.61355
ltoes -21.1443
